<svg width="592" height="111" viewBox="0 0 592 111" fill="none" xmlns="http://www.w3.org/2000/svg">
<path d="M231.132 43.6761C230.644 43.6763 230.175 43.4865 229.824 43.1468C229.473 42.8071 229.268 42.3442 229.252 41.8561C229.062 35.8661 228.732 30.0961 221.242 30.0261C199.722 29.8461 185.062 29.8727 177.262 30.1061C174.522 30.1861 170.052 30.9861 169.162 34.0361C167.956 38.1561 167.939 42.2161 169.112 46.2161C170.072 49.4761 178.102 49.8561 181.052 49.8761C201.952 50.0161 212.312 49.7361 225.672 51.1161C231.402 51.7061 237.802 53.6161 239.632 60.0161C241.479 66.4894 241.416 73.2227 239.442 80.2161C237.862 85.8361 232.512 88.7161 227.192 89.7061C215.352 91.9061 203.782 91.2861 190.472 91.2561C183.166 91.2427 176.996 90.7394 171.962 89.7461C160.012 87.3861 158.382 78.2861 157.912 67.8761C157.902 67.6252 157.942 67.3747 158.03 67.1397C158.119 66.9047 158.254 66.6901 158.428 66.5088C158.602 66.3275 158.811 66.1833 159.042 66.0849C159.273 65.9865 159.521 65.9358 159.772 65.9361H166.732C167.112 65.9357 167.477 66.0824 167.751 66.3452C168.025 66.608 168.187 66.9667 168.202 67.3461C168.322 70.1661 168.649 72.8961 169.182 75.5361C170.172 80.4561 174.592 81.4561 178.982 81.7861C180.916 81.9327 193.249 81.9694 215.982 81.8961C219.852 81.8861 228.342 81.5361 229.642 77.2661C230.849 73.3261 230.986 68.9594 230.052 64.1661C229.927 63.5281 229.643 62.9319 229.228 62.4322C228.812 61.9324 228.277 61.5452 227.672 61.3061C226.206 60.7261 224.559 60.4061 222.732 60.3461C198.586 59.5194 185.852 59.1494 184.532 59.2361C184.486 59.2361 183.286 59.2261 180.932 59.2061C175.986 59.1527 171.369 58.4661 167.082 57.1461C161.272 55.3661 159.112 51.3761 158.272 45.1061C157.632 40.3127 157.939 35.7361 159.192 31.3761C161.302 24.0161 167.972 22.4861 175.272 21.2761C177.699 20.8761 181.769 20.6361 187.482 20.5561C201.736 20.3494 213.072 20.4694 221.492 20.9161C222.966 20.9894 225.252 21.4194 228.352 22.2061C238.072 24.6561 239.612 33.2161 239.462 41.8461C239.454 42.3342 239.255 42.7996 238.907 43.1419C238.559 43.4843 238.091 43.6761 237.602 43.6761H231.132Z" fill="black"/>
<path d="M431.653 55.7568C431.633 61.0868 431.553 68.1568 433.203 74.2468C434.973 80.8068 441.653 81.7268 447.483 81.7668C467.956 81.9068 479.539 81.9168 482.233 81.7968C485.446 81.6501 488.123 80.8901 490.263 79.5168C493.483 77.4568 493.993 70.5568 493.853 67.0068C493.845 66.7982 493.879 66.5902 493.953 66.3952C494.027 66.2001 494.14 66.0221 494.285 65.8718C494.43 65.7214 494.603 65.6019 494.795 65.5202C494.988 65.4386 495.194 65.3966 495.403 65.3968H502.553C502.936 65.3964 503.305 65.5437 503.582 65.8082C503.86 66.0726 504.025 66.4339 504.043 66.8168C504.236 70.6368 503.839 74.3534 502.853 77.9668C500.063 88.2268 490.993 90.2368 481.463 90.8968C475.889 91.2901 466.729 91.3834 453.983 91.1768C442.863 90.9968 429.423 90.8868 424.243 79.2368C423.283 77.0768 422.539 73.7434 422.013 69.2368C421.553 65.3501 421.333 60.8468 421.353 55.7268C421.366 50.6001 421.616 46.1001 422.103 42.2268C422.656 37.7201 423.419 34.3901 424.393 32.2368C429.653 20.6168 443.093 20.5968 454.213 20.4868C466.959 20.3668 476.119 20.5201 481.693 20.9468C491.213 21.6668 500.273 23.7368 502.993 34.0168C503.959 37.6368 504.333 41.3568 504.113 45.1768C504.092 45.5597 503.925 45.9199 503.645 46.1825C503.366 46.4451 502.996 46.5899 502.613 46.5868L495.463 46.5368C495.254 46.5356 495.048 46.4924 494.856 46.4095C494.665 46.3267 494.492 46.206 494.348 46.0547C494.204 45.9034 494.092 45.7247 494.019 45.5291C493.946 45.3336 493.913 45.1253 493.923 44.9168C494.093 41.3668 493.623 34.4668 490.413 32.3868C488.286 31.0001 485.616 30.2234 482.403 30.0568C479.709 29.9168 468.126 29.8501 447.653 29.8568C441.823 29.8568 435.133 30.7368 433.323 37.2868C431.643 43.3568 431.673 50.4368 431.653 55.7568Z" fill="black"/>
<path d="M257.882 21.9766H251.142C250.159 21.9766 249.362 22.7735 249.362 23.7566V87.9366C249.362 88.9196 250.159 89.7166 251.142 89.7166H257.882C258.865 89.7166 259.662 88.9196 259.662 87.9366V23.7566C259.662 22.7735 258.865 21.9766 257.882 21.9766Z" fill="black"/>
<path d="M281.322 31.2566V50.1666C281.322 50.3363 281.39 50.4991 281.51 50.6191C281.63 50.7391 281.792 50.8066 281.962 50.8066H333.582C334.049 50.8066 334.497 50.992 334.827 51.3221C335.157 51.6521 335.342 52.0998 335.342 52.5666V57.8166C335.342 58.3152 335.143 58.7934 334.789 59.1459C334.434 59.4985 333.953 59.6966 333.452 59.6966H281.892C281.817 59.6966 281.743 59.7113 281.674 59.7399C281.605 59.7686 281.542 59.8106 281.489 59.8635C281.436 59.9164 281.394 59.9793 281.366 60.0484C281.337 60.1176 281.322 60.1917 281.322 60.2666V80.2866C281.322 80.4483 281.386 80.6035 281.501 80.7179C281.615 80.8323 281.77 80.8966 281.932 80.8966H336.992C337.528 80.8966 338.042 81.1094 338.421 81.4882C338.799 81.867 339.012 82.3808 339.012 82.9166V87.6266C339.012 88.1756 338.794 88.7021 338.406 89.0903C338.018 89.4785 337.491 89.6966 336.942 89.6966H272.862C272.366 89.6966 271.891 89.4995 271.54 89.1488C271.189 88.7982 270.992 88.3225 270.992 87.8266V23.9866C270.992 23.4535 271.204 22.9422 271.581 22.5653C271.958 22.1883 272.469 21.9766 273.002 21.9766H335.752C336.33 21.9766 336.885 22.2062 337.294 22.6151C337.702 23.0239 337.932 23.5784 337.932 24.1566V28.6666C337.932 29.2819 337.688 29.872 337.253 30.307C336.818 30.7421 336.227 30.9866 335.612 30.9866H281.592C281.521 30.9866 281.452 31.015 281.401 31.0656C281.351 31.1163 281.322 31.185 281.322 31.2566Z" fill="black"/>
<path d="M378.892 21.9668C390.932 21.9668 402.875 21.9701 414.722 21.9768C415.313 21.9768 415.881 22.2117 416.299 22.6299C416.717 23.0482 416.952 23.6154 416.952 24.2068V28.8268C416.952 29.3997 416.725 29.9491 416.322 30.3541C415.919 30.7592 415.372 30.9868 414.802 30.9868H384.412C384.306 30.9868 384.204 31.0289 384.129 31.104C384.054 31.179 384.012 31.2807 384.012 31.3868L384.022 88.1268C384.024 88.4835 383.898 88.829 383.667 89.1005C383.435 89.3721 383.114 89.5517 382.762 89.6068C382.342 89.6668 381.055 89.6968 378.902 89.6968C376.749 89.6968 375.462 89.6668 375.042 89.6068C374.69 89.5517 374.369 89.3721 374.137 89.1005C373.906 88.829 373.78 88.4835 373.782 88.1268L373.772 31.3868C373.772 31.2807 373.73 31.179 373.655 31.104C373.58 31.0289 373.478 30.9868 373.372 30.9868L342.982 30.9968C342.412 30.9968 341.865 30.7692 341.462 30.3641C341.059 29.9591 340.832 29.4097 340.832 28.8368V24.2168C340.832 23.6254 341.067 23.0582 341.485 22.6399C341.903 22.2217 342.471 21.9868 343.062 21.9868C354.909 21.9735 366.852 21.9668 378.892 21.9668Z" fill="black"/>
<path d="M56.5727 12.4545C61.3818 9.03277 66.4531 6.10905 71.7867 3.68335C74.7539 2.33385 77.6895 1.2432 80.5936 0.41142C82.4927 -0.134559 84.0387 -0.302098 85.636 1.06581C98.7281 12.287 108.105 27.5527 111.856 44.4761C112.152 45.8138 112.432 47.1863 112.696 48.5936C112.706 48.6549 112.728 48.7142 112.759 48.769C113.019 49.2184 112.996 50.1369 112.996 51.0278C113.003 83.7327 113.001 103.45 112.988 110.181C112.988 110.234 112.972 110.287 112.944 110.331C112.915 110.376 112.874 110.411 112.826 110.433L111.759 110.908C111.665 110.95 111.565 110.973 111.463 110.975C111.444 110.975 110.244 110.981 107.864 110.993C106.988 110.997 106.364 110.881 105.993 110.644C105.376 110.251 105.002 109.743 104.869 109.12C101.87 95.1083 97.4306 81.4351 91.3923 68.3908C85.3462 55.3326 77.6435 43.0904 67.7914 32.6912C64.2681 28.9725 60.5036 25.5613 56.4978 22.4576C56.4791 22.4435 56.4564 22.4359 56.4333 22.4359C56.4101 22.4359 56.3877 22.4435 56.3696 22.4576C48.7459 28.4482 42.0417 35.3837 36.2572 43.2639C34.5994 45.524 33.1894 47.547 32.0272 49.3327C26.0619 58.5119 21.0373 68.578 17.0696 78.8294C13.2676 88.6518 10.2984 98.6161 8.1621 108.722C7.95833 109.687 7.50872 110.346 6.81326 110.701C6.39651 110.913 5.68988 111.012 4.69336 110.999C3.03293 110.977 2.13502 110.971 1.99961 110.981C1.34096 111.032 0.717808 110.776 0.264248 110.431C0.182118 110.369 0.11554 110.288 0.0697039 110.196C0.0238681 110.104 1.34714e-05 110.002 0 109.899C0 82.1322 0 62.6892 0 51.5699C0 49.5358 0.416092 47.3794 0.901204 45.1206C3.12036 34.7858 7.24907 25.2663 13.2873 16.5622C16.6055 11.7817 20.4128 7.37381 24.7092 3.33842C25.8871 2.23069 26.8645 1.3838 27.6415 0.797745C29.0732 -0.282388 30.5719 -0.101051 32.2382 0.379883C34.8045 1.11968 37.4279 2.07761 40.1085 3.25367C45.801 5.75164 51.201 8.81858 56.3085 12.4545C56.347 12.4821 56.3932 12.4969 56.4406 12.4969C56.488 12.4969 56.5342 12.4821 56.5727 12.4545ZM7.18794 82.0974C7.19684 82.1028 7.20682 82.1062 7.21714 82.1073C7.22746 82.1084 7.23784 82.1072 7.24752 82.1037C7.25719 82.1003 7.2659 82.0948 7.273 82.0876C7.2801 82.0803 7.2854 82.0716 7.28851 82.0619C11.5086 69.9302 16.973 58.1453 23.8001 47.2691C30.8736 35.9986 39.3769 26.0941 49.5366 17.727C49.552 17.7144 49.5642 17.6983 49.5723 17.6801C49.5803 17.6618 49.584 17.642 49.5831 17.6221C49.5821 17.6022 49.5765 17.5828 49.5667 17.5654C49.557 17.5481 49.5433 17.5332 49.5268 17.5221C46.2966 15.3552 42.866 13.4039 39.2349 11.6681C36.3006 10.266 33.5542 9.15497 30.9959 8.33502C30.9596 8.32315 30.9206 8.32146 30.8831 8.33014C30.8456 8.33882 30.811 8.35753 30.7829 8.3843C22.6517 16.1003 16.5648 24.8793 12.5222 34.7214C8.91738 43.4978 7.1439 52.6776 7.20174 62.2608C7.23724 68.2291 7.23001 74.8118 7.18005 82.0087C7.18005 82.0127 7.17808 82.0278 7.17413 82.0541C7.17019 82.0738 7.17479 82.0882 7.18794 82.0974ZM105.721 82.1152C105.734 82.106 105.739 82.0915 105.735 82.0718C105.731 82.0455 105.729 82.0304 105.729 82.0265C105.679 74.8269 105.672 68.2423 105.707 62.2727C105.765 52.6868 103.991 43.5044 100.385 34.7253C96.3407 24.8793 90.2518 16.0976 82.118 8.38035C82.0899 8.35359 82.0553 8.33487 82.0178 8.3262C81.9803 8.31752 81.9413 8.31921 81.905 8.33108C79.3467 9.15103 76.5997 10.262 73.664 11.6641C70.0316 13.4013 66.5997 15.3533 63.3682 17.5201C63.3517 17.5312 63.338 17.5461 63.3282 17.5634C63.3185 17.5808 63.3129 17.6002 63.3119 17.6201C63.311 17.64 63.3147 17.6599 63.3227 17.6781C63.3308 17.6963 63.343 17.7124 63.3584 17.7251C73.5221 26.0941 82.0273 36.0026 89.1028 47.2769C95.9318 58.1551 101.398 69.944 105.62 82.0797C105.623 82.0893 105.629 82.0981 105.636 82.1053C105.643 82.1125 105.652 82.1181 105.661 82.1215C105.671 82.1249 105.681 82.1261 105.692 82.125C105.702 82.1239 105.712 82.1205 105.721 82.1152Z" fill="black"/>
<path d="M550.119 52.2693C570.812 52.2693 581.489 52.2589 582.148 52.2382C582.216 52.2361 582.281 52.2074 582.328 52.158C582.375 52.1086 582.402 52.0425 582.402 51.9737V22.5056C582.402 22.3777 582.453 22.2551 582.545 22.1647C582.637 22.0742 582.762 22.0234 582.892 22.0234H590.664C590.784 22.0234 590.899 22.0701 590.983 22.1533C591.068 22.2364 591.115 22.3492 591.115 22.4667V90.5723C591.115 90.692 591.067 90.8067 590.981 90.8913C590.895 90.9759 590.778 91.0234 590.656 91.0234H582.702C582.623 91.0234 582.546 90.9931 582.49 90.9391C582.433 90.8852 582.402 90.812 582.402 90.7357V59.5877C582.402 59.5127 582.373 59.4407 582.321 59.3869C582.269 59.3332 582.199 59.302 582.125 59.2999C581.586 59.2895 570.918 59.2844 550.119 59.2844C529.315 59.2896 518.644 59.2973 518.106 59.3077C518.033 59.3097 517.964 59.3398 517.912 59.3919C517.861 59.444 517.831 59.514 517.829 59.5877L517.837 90.7357C517.837 90.812 517.805 90.8852 517.749 90.9391C517.692 90.9931 517.616 91.0234 517.536 91.0234H509.582C509.46 91.0234 509.344 90.9759 509.258 90.8913C509.172 90.8067 509.123 90.692 509.123 90.5723L509.115 22.4667C509.115 22.3492 509.163 22.2364 509.247 22.1533C509.332 22.0701 509.447 22.0234 509.566 22.0234H517.338C517.468 22.0234 517.593 22.0742 517.685 22.1647C517.777 22.2551 517.829 22.3777 517.829 22.5056V51.9737C517.829 52.0425 517.855 52.1086 517.902 52.158C517.95 52.2074 518.014 52.2361 518.082 52.2382C518.742 52.2589 529.421 52.2693 550.119 52.2693Z" fill="black"/>
</svg>
