<svg width="357" height="96" viewBox="0 0 357 96" fill="none" xmlns="http://www.w3.org/2000/svg">
<path d="M131.51 0H131.09C130.946 0 130.83 0.116406 130.83 0.26V94.36C130.83 94.5036 130.946 94.62 131.09 94.62H131.51C131.654 94.62 131.77 94.5036 131.77 94.36V0.26C131.77 0.116406 131.654 0 131.51 0Z" fill="#CACACA"/>
<path d="M52.1307 10.9908C52.5307 10.9908 52.7674 10.9675 52.8407 10.9208C59.5674 6.63415 66.6307 3.29082 74.0307 0.890818C74.7374 0.664151 75.8274 0.667483 77.3007 0.900816C77.6227 0.953247 77.9281 1.08364 78.1907 1.28082C92.6707 11.9508 101.571 30.3708 103.581 47.4408C103.927 50.3942 104.064 58.2375 103.991 70.9708C103.917 85.3842 103.864 93.2475 103.831 94.5608C103.828 94.766 103.744 94.9618 103.596 95.106C103.448 95.2501 103.249 95.3309 103.041 95.3308H97.9607C97.7413 95.3308 97.5284 95.2579 97.3561 95.1237C97.1839 94.9895 97.0623 94.8019 97.0107 94.5908C94.7441 85.3242 91.9274 76.5275 88.5607 68.2008C81.2607 50.1608 70.5407 34.8041 56.4007 22.1308C55.1607 21.0175 53.7974 20.0442 52.3107 19.2108C52.284 19.1975 52.2207 19.1908 52.1207 19.1908C52.014 19.1908 51.9474 19.1975 51.9207 19.2108C50.434 20.0375 49.0674 21.0041 47.8207 22.1108C33.6207 34.7175 22.8274 50.0241 15.4407 68.0308C12.034 76.3441 9.17738 85.1275 6.87071 94.3808C6.81726 94.59 6.69479 94.7754 6.52272 94.9076C6.35064 95.0399 6.13879 95.1114 5.92071 95.1108L0.840714 95.0908C0.632931 95.0908 0.433505 95.01 0.285638 94.8659C0.137771 94.7218 0.0533682 94.526 0.0507135 94.3208C0.0240469 93.0075 0.00738095 85.1442 0.000714284 70.7308C-0.012619 57.9975 0.160715 50.1542 0.520715 47.2008C2.61071 30.1408 11.6007 11.7608 26.1307 1.16082C26.3934 0.963654 26.6988 0.833266 27.0207 0.780817C28.494 0.554151 29.584 0.557484 30.2907 0.790818C37.6774 3.22415 44.724 6.60082 51.4307 10.9208C51.504 10.9675 51.7374 10.9908 52.1307 10.9908ZM45.8307 15.6008C45.8831 15.544 45.9226 15.4766 45.9467 15.4032C45.9707 15.3298 45.9788 15.2521 45.9702 15.1753C45.9617 15.0985 45.9368 15.0245 45.8972 14.9582C45.8576 14.8918 45.8042 14.8348 45.7407 14.7908C41.2407 11.7708 36.044 9.23748 30.1507 7.19082C29.736 7.04576 29.2896 7.01565 28.8583 7.10365C28.4271 7.19165 28.0272 7.39451 27.7007 7.69082C18.754 15.9242 12.4807 25.8008 8.88072 37.3208C7.51405 41.7008 6.75738 46.8475 6.61071 52.7608C6.43071 60.0275 6.41071 65.9308 6.55071 70.4708C6.55557 70.5769 6.59188 70.6796 6.65493 70.7654C6.71798 70.8512 6.80482 70.9161 6.90415 70.9517C7.00347 70.9873 7.11065 70.992 7.21172 70.9651C7.31278 70.9382 7.40304 70.8809 7.47072 70.8008C7.71072 70.5275 7.94071 70.0941 8.16071 69.5008C14.6474 52.0075 24.4307 36.6575 37.5107 23.4508C40.2107 20.7208 43.4807 18.1508 45.8307 15.6008ZM58.4807 15.5308C60.8107 18.0808 64.0507 20.6608 66.7307 23.4008C79.6907 36.6341 89.3574 51.9842 95.7307 69.4508C95.9441 70.0442 96.1707 70.4775 96.4107 70.7508C96.4784 70.8323 96.5693 70.8912 96.6713 70.9197C96.7734 70.9481 96.8816 70.9447 96.9817 70.9099C97.0817 70.8751 97.1688 70.8105 97.2311 70.7249C97.2935 70.6393 97.3282 70.5367 97.3307 70.4308C97.4907 65.9042 97.5007 60.0208 97.3607 52.7808C97.2474 46.8875 96.524 41.7542 95.1907 37.3808C91.664 25.8808 85.464 16.0008 76.5907 7.74082C76.2668 7.44366 75.869 7.23941 75.4395 7.14963C75.01 7.05986 74.5647 7.08791 74.1507 7.23082C68.2641 9.23748 63.0707 11.7341 58.5707 14.7208C58.5072 14.7648 58.4538 14.8218 58.4142 14.8882C58.3746 14.9545 58.3497 15.0285 58.3412 15.1053C58.3327 15.1821 58.3407 15.2598 58.3648 15.3332C58.3888 15.4066 58.4284 15.474 58.4807 15.5308Z" fill="#111111"/>
<path d="M161.43 40.5107C161.527 40.3695 161.653 40.2502 161.799 40.1608C161.945 40.0714 162.108 40.014 162.277 39.9922C162.446 39.9705 162.618 39.9849 162.78 40.0347C162.943 40.0844 163.093 40.1683 163.22 40.2807C165.8 42.5607 168.91 43.5741 172.55 43.3207C175.46 43.1207 178.16 39.9207 174.87 37.7307C174.665 37.5919 174.438 37.4903 174.2 37.4307C171.754 36.8307 169.227 36.1074 166.62 35.2607C162.114 33.8074 159.88 31.1207 159.92 27.2007C159.95 23.4607 162.62 20.2607 166.08 19.2707C170.367 18.0441 174.997 18.5974 179.97 20.9307C180.198 21.0371 180.4 21.1919 180.562 21.3844C180.724 21.5769 180.843 21.8026 180.909 22.046C180.976 22.2893 180.989 22.5445 180.948 22.7939C180.906 23.0433 180.812 23.281 180.67 23.4907L179.29 25.5207C179.167 25.7031 179.007 25.8582 178.822 25.9765C178.636 26.0947 178.428 26.1737 178.21 26.2083C177.993 26.243 177.771 26.2327 177.557 26.1781C177.344 26.1235 177.144 26.0257 176.97 25.8907C174.683 24.1374 171.883 23.5474 168.57 24.1207C167.283 24.3407 166.477 25.0207 166.15 26.1607C165.985 26.7304 166.029 27.3443 166.277 27.8984C166.525 28.4524 166.961 28.9125 167.51 29.2007C170.18 30.6107 173.64 30.7407 176.75 32.1307C180.52 33.8207 182.75 36.3507 182.26 40.8907C181.98 43.4374 180.717 45.4474 178.47 46.9207C173 50.5007 164.55 48.7707 159.75 44.9107C159.519 44.7255 159.366 44.4602 159.322 44.1675C159.278 43.8749 159.345 43.5762 159.51 43.3307L161.43 40.5107Z" fill="#111111"/>
<path d="M295.69 33.8207C295.71 34.734 295.937 35.7673 296.37 36.9207C298.43 42.3807 302.41 44.3973 308.31 42.9707C309.204 42.7573 310.627 41.8773 312.58 40.3307C312.815 40.1467 313.109 40.0553 313.407 40.0737C313.705 40.0921 313.988 40.2191 314.2 40.4307L316.73 42.9607C316.816 43.0437 316.883 43.1433 316.928 43.2535C316.974 43.3637 316.996 43.4822 316.994 43.6019C316.992 43.7215 316.966 43.8398 316.918 43.9496C316.869 44.0594 316.798 44.1584 316.71 44.2407C315.01 45.8407 313.764 46.8007 312.97 47.1207C302.18 51.4807 289.73 46.7207 289.52 33.9207C289.3 21.1307 301.59 15.9507 312.51 19.9407C313.317 20.2407 314.597 21.1607 316.35 22.7007C316.441 22.7801 316.515 22.877 316.567 22.9853C316.619 23.0937 316.649 23.2112 316.655 23.3309C316.66 23.4506 316.642 23.5699 316.6 23.6816C316.558 23.7933 316.493 23.895 316.41 23.9807L313.97 26.5907C313.765 26.8113 313.487 26.9494 313.188 26.9789C312.89 27.0084 312.592 26.9272 312.35 26.7507C310.35 25.2707 308.9 24.4373 308 24.2507C302.054 23.024 298.14 25.174 296.26 30.7007C295.867 31.8673 295.677 32.9073 295.69 33.8207Z" fill="#111111"/>
<path d="M201.931 18.8906H197.591C197.088 18.8906 196.681 19.298 196.681 19.8006V47.5606C196.681 48.0632 197.088 48.4706 197.591 48.4706H201.931C202.433 48.4706 202.841 48.0632 202.841 47.5606V19.8006C202.841 19.298 202.433 18.8906 201.931 18.8906Z" fill="#111111"/>
<path d="M239.821 31.4403V35.2903C239.821 35.4733 239.748 35.6488 239.619 35.7782C239.489 35.9076 239.314 35.9803 239.131 35.9803H225.861C225.678 35.9803 225.502 36.053 225.373 36.1824C225.243 36.3118 225.171 36.4873 225.171 36.6703V42.4403C225.171 42.6233 225.243 42.7988 225.373 42.9282C225.502 43.0576 225.678 43.1303 225.861 43.1303H241.341C241.524 43.1303 241.699 43.203 241.829 43.3324C241.958 43.4618 242.031 43.6373 242.031 43.8203V47.7103C242.031 47.8933 241.958 48.0688 241.829 48.1982C241.699 48.3276 241.524 48.4003 241.341 48.4003H219.661C219.478 48.4003 219.302 48.3276 219.173 48.1982C219.043 48.0688 218.971 47.8933 218.971 47.7103V19.7203C218.971 19.5373 219.043 19.3618 219.173 19.2324C219.302 19.103 219.478 19.0303 219.661 19.0303H241.001C241.184 19.0303 241.359 19.103 241.489 19.2324C241.618 19.3618 241.691 19.5373 241.691 19.7203V23.4703C241.691 23.6533 241.618 23.8288 241.489 23.9582C241.359 24.0876 241.184 24.1603 241.001 24.1603H225.951C225.768 24.1603 225.592 24.233 225.463 24.3624C225.333 24.4918 225.261 24.6673 225.261 24.8503V30.0603C225.261 30.2433 225.333 30.4188 225.463 30.5482C225.592 30.6776 225.768 30.7503 225.951 30.7503H239.131C239.314 30.7503 239.489 30.823 239.619 30.9524C239.748 31.0818 239.821 31.2573 239.821 31.4403Z" fill="#111111"/>
<path d="M266.551 18.9102C270.524 18.9702 274.247 18.9968 277.721 18.9902C278.02 18.9902 278.308 19.1092 278.52 19.3211C278.732 19.533 278.851 19.8205 278.851 20.1202V23.0202C278.851 23.3596 278.717 23.6852 278.479 23.9253C278.241 24.1653 277.918 24.3002 277.581 24.3002H270.871C270.538 24.3001 270.219 24.4315 269.983 24.6657C269.747 24.8998 269.613 25.2177 269.611 25.5502L269.531 47.4302C269.528 47.6525 269.449 47.8672 269.307 48.0383C269.165 48.2095 268.969 48.3266 268.751 48.3702C268.637 48.3968 267.881 48.4068 266.481 48.4002C265.081 48.4002 264.324 48.3868 264.211 48.3602C263.993 48.3166 263.796 48.1995 263.654 48.0284C263.512 47.8572 263.433 47.6425 263.431 47.4202L263.451 25.5402C263.451 25.2077 263.319 24.8887 263.085 24.6527C262.851 24.4167 262.533 24.2828 262.201 24.2802L255.491 24.2502C255.323 24.2502 255.157 24.2167 255.002 24.1518C254.848 24.0869 254.707 23.9917 254.589 23.8718C254.471 23.7518 254.378 23.6095 254.315 23.4531C254.251 23.2966 254.219 23.1291 254.221 22.9602L254.241 20.0702C254.241 19.7705 254.36 19.483 254.572 19.2711C254.784 19.0592 255.071 18.9402 255.371 18.9402C258.844 18.9602 262.571 18.9502 266.551 18.9102Z" fill="#111111"/>
<path d="M343.66 30.8901C347.36 30.8967 349.377 30.9001 349.71 30.9001C349.888 30.9001 350.058 30.8305 350.184 30.7067C350.309 30.583 350.38 30.4151 350.38 30.2401V19.6401C350.38 19.4359 350.461 19.24 350.606 19.0956C350.75 18.9512 350.946 18.8701 351.15 18.8701H355.7C355.82 18.8701 355.939 18.8939 356.051 18.9403C356.162 18.9866 356.262 19.0546 356.347 19.1401C356.432 19.2257 356.498 19.3272 356.544 19.4388C356.589 19.5503 356.611 19.6697 356.61 19.7901C356.537 25.5501 356.497 30.1401 356.49 33.5601C356.483 36.9867 356.507 41.5767 356.56 47.3301C356.561 47.4513 356.538 47.5715 356.493 47.6837C356.447 47.7959 356.379 47.8979 356.294 47.9836C356.208 48.0693 356.106 48.137 355.994 48.1828C355.881 48.2285 355.761 48.2514 355.64 48.2501L351.09 48.2401C350.989 48.2388 350.889 48.2176 350.796 48.1777C350.703 48.1378 350.619 48.0799 350.548 48.0075C350.478 47.9351 350.422 47.8494 350.385 47.7555C350.347 47.6616 350.329 47.5612 350.33 47.4601L350.37 36.8601C350.37 36.6851 350.299 36.5172 350.174 36.3934C350.048 36.2697 349.878 36.2001 349.7 36.2001C349.367 36.2001 347.35 36.1967 343.65 36.1901C339.957 36.1834 337.943 36.1801 337.61 36.1801C337.432 36.1801 337.262 36.2496 337.136 36.3734C337.011 36.4972 336.94 36.665 336.94 36.8401V47.4401C336.94 47.6443 336.859 47.8401 336.714 47.9846C336.57 48.129 336.374 48.2101 336.17 48.2101H331.62C331.5 48.2101 331.38 48.1862 331.269 48.1399C331.158 48.0935 331.058 48.0256 330.973 47.94C330.888 47.8545 330.822 47.753 330.776 47.6414C330.731 47.5298 330.709 47.4104 330.71 47.2901C330.783 41.5301 330.823 36.9401 330.83 33.5201C330.837 30.0934 330.813 25.5034 330.76 19.7501C330.759 19.6297 330.781 19.5103 330.826 19.3988C330.872 19.2872 330.938 19.1857 331.023 19.1001C331.108 19.0146 331.208 18.9466 331.319 18.9003C331.43 18.8539 331.55 18.8301 331.67 18.8301L336.22 18.8401C336.322 18.8401 336.423 18.8603 336.517 18.8996C336.611 18.939 336.696 18.9966 336.768 19.0691C336.84 19.1417 336.896 19.2278 336.934 19.3223C336.972 19.4169 336.991 19.5181 336.99 19.6201L336.95 30.2201C336.95 30.3951 337.021 30.563 337.146 30.6867C337.272 30.8105 337.442 30.88 337.62 30.8801C337.953 30.8801 339.967 30.8834 343.66 30.8901Z" fill="#111111"/>
<path d="M212.57 79.4005C212.177 79.4005 211.86 79.3005 211.62 79.1005C211.354 78.8872 211.21 78.5972 211.19 78.2305C210.964 74.3238 210.947 70.4605 211.14 66.6405C211.144 66.5605 211.132 66.4805 211.105 66.4054C211.078 66.3303 211.036 66.2616 210.981 66.2036C210.927 66.1456 210.862 66.0994 210.789 66.068C210.717 66.0365 210.639 66.0203 210.56 66.0205H206.38C206.243 66.0207 206.109 65.9785 205.996 65.8998C205.883 65.8211 205.797 65.7096 205.75 65.5805C205.497 64.8872 205.474 64.2938 205.68 63.8005C205.745 63.6458 205.853 63.5132 205.991 63.4191C206.13 63.3249 206.293 63.2733 206.46 63.2705C206.78 63.2705 208.827 63.2738 212.6 63.2805C216.374 63.2872 218.42 63.2938 218.74 63.3005C218.908 63.3033 219.071 63.3549 219.209 63.4491C219.348 63.5432 219.456 63.6758 219.52 63.8305C219.72 64.3238 219.694 64.9172 219.44 65.6105C219.391 65.7377 219.305 65.8471 219.192 65.9239C219.08 66.0007 218.947 66.0414 218.81 66.0405L214.63 66.0305C214.552 66.0303 214.474 66.0465 214.401 66.078C214.329 66.1095 214.263 66.1556 214.209 66.2136C214.155 66.2716 214.113 66.3403 214.086 66.4154C214.058 66.4905 214.046 66.5705 214.05 66.6505C214.23 70.4705 214.197 74.3338 213.95 78.2405C213.93 78.6072 213.787 78.8972 213.52 79.1105C213.28 79.3038 212.964 79.4005 212.57 79.4005Z" fill="#C0A075"/>
<path d="M266.2 71.3307C266.207 72.1707 266.413 72.9573 266.82 73.6907C268.813 77.304 271.693 77.784 275.46 75.1307C275.615 75.0214 275.803 74.9704 275.991 74.9869C276.18 75.0034 276.357 75.0862 276.49 75.2207L277.4 76.1307C277.471 76.1996 277.527 76.282 277.565 76.3731C277.604 76.4641 277.624 76.5619 277.624 76.6607C277.624 76.7595 277.604 76.8573 277.565 76.9483C277.527 77.0393 277.471 77.1217 277.4 77.1907C272.29 82.1507 263.05 78.9907 263.01 71.3507C262.96 63.7207 272.16 60.4507 277.33 65.3507C277.4 65.4188 277.456 65.5001 277.494 65.5898C277.532 65.6796 277.553 65.776 277.553 65.8736C277.554 65.9712 277.536 66.068 277.499 66.1585C277.463 66.2489 277.409 66.3312 277.34 66.4007L276.44 67.3207C276.309 67.4582 276.134 67.5447 275.945 67.5649C275.757 67.585 275.567 67.5375 275.41 67.4307C271.617 64.8173 268.743 65.3307 266.79 68.9707C266.397 69.7107 266.2 70.4973 266.2 71.3307Z" fill="#C0A075"/>
<path d="M285.791 75.9809L286.471 75.5009C286.697 75.3391 286.967 75.2496 287.246 75.2442C287.524 75.2389 287.798 75.3179 288.031 75.4709C291.011 77.4375 293.271 77.4942 294.811 75.6409C294.96 75.4622 295.063 75.2493 295.111 75.0209C295.158 74.7926 295.148 74.5558 295.082 74.3314C295.016 74.1071 294.895 73.9021 294.731 73.7346C294.567 73.5671 294.364 73.4422 294.141 73.3709C291.121 72.4375 289.474 71.9175 289.201 71.8109C284.731 70.0609 285.071 64.1709 289.831 63.1909C291.791 62.7842 293.991 63.1842 296.431 64.3909C296.605 64.4767 296.758 64.599 296.881 64.7497C297.004 64.9004 297.093 65.0759 297.142 65.2644C297.191 65.4529 297.2 65.6501 297.167 65.8427C297.134 66.0352 297.06 66.2188 296.951 66.3809L296.681 66.7909C296.599 66.9108 296.495 67.0133 296.374 67.0924C296.253 67.1716 296.117 67.2257 295.974 67.2518C295.832 67.2779 295.686 67.2753 295.544 67.2442C295.403 67.2132 295.269 67.1542 295.151 67.0709C293.911 66.2009 290.011 65.1509 288.981 67.1909C288.902 67.3447 288.858 67.5135 288.851 67.6858C288.843 67.8582 288.873 68.0302 288.937 68.1902C289.001 68.3503 289.099 68.4947 289.224 68.6138C289.349 68.7329 289.498 68.824 289.661 68.8809C291.041 69.3675 292.934 69.9509 295.341 70.6309C296.811 71.0409 298.071 72.8509 297.951 74.4309C297.471 80.9409 289.461 80.1409 285.791 77.5309C285.668 77.4437 285.568 77.3283 285.499 77.1943C285.43 77.0603 285.394 76.9114 285.394 76.76C285.394 76.6086 285.43 76.459 285.499 76.3235C285.568 76.1881 285.668 76.0706 285.791 75.9809Z" fill="#C0A075"/>
<path d="M162.951 68.9104V78.6604C162.951 78.8434 162.878 79.0189 162.749 79.1483C162.619 79.2777 162.444 79.3504 162.261 79.3504H160.871C160.621 79.3504 160.382 79.2514 160.206 79.0751C160.03 78.8988 159.931 78.6597 159.931 78.4104V63.8404C159.93 63.6795 159.99 63.5239 160.099 63.4038C160.208 63.2838 160.358 63.2077 160.521 63.1904C161.521 63.0837 162.211 63.1037 162.591 63.2504C162.949 63.3873 163.256 63.6317 163.471 63.9504L167.731 70.2104C167.766 70.2614 167.814 70.3029 167.869 70.3313C167.925 70.3596 167.986 70.3739 168.048 70.3729C168.111 70.3719 168.172 70.3557 168.226 70.3256C168.28 70.2955 168.327 70.2525 168.361 70.2004L172.671 63.8704C172.784 63.6986 172.939 63.5575 173.12 63.4598C173.302 63.3621 173.505 63.3108 173.711 63.3104H174.971C175.215 63.3104 175.449 63.4063 175.621 63.577C175.794 63.7476 175.891 63.9791 175.891 64.2204V78.7104C175.891 78.8669 175.827 79.017 175.715 79.1276C175.602 79.2383 175.45 79.3004 175.291 79.3004H173.821C173.622 79.3004 173.431 79.2214 173.29 79.0807C173.15 78.9401 173.071 78.7493 173.071 78.5504V69.5004C173.069 69.4122 173.04 69.3267 172.988 69.256C172.935 69.1853 172.861 69.133 172.777 69.1064C172.693 69.0799 172.603 69.0804 172.519 69.1081C172.435 69.1357 172.362 69.189 172.311 69.2604L168.421 74.9904C168.387 75.0379 168.343 75.0766 168.292 75.1034C168.241 75.1301 168.184 75.1441 168.126 75.1441C168.068 75.1441 168.011 75.1301 167.959 75.1034C167.908 75.0766 167.864 75.0379 167.831 74.9904L163.381 68.7804C163.351 68.7393 163.308 68.7081 163.26 68.6916C163.211 68.675 163.159 68.674 163.111 68.6885C163.063 68.7031 163.021 68.7325 162.992 68.7724C162.964 68.8124 162.949 68.8607 162.951 68.9104Z" fill="#C0A075"/>
<path d="M197.07 71.2308C197.077 71.6574 196.973 71.9774 196.76 72.1908C196.533 72.4108 196.223 72.5241 195.83 72.5307C195.01 72.5507 192.957 72.5341 189.67 72.4808C189.55 72.4781 189.431 72.4997 189.32 72.5442C189.208 72.5887 189.106 72.6553 189.021 72.7401C188.935 72.8249 188.867 72.9261 188.82 73.0378C188.774 73.1496 188.75 73.2695 188.75 73.3907V75.8307C188.75 76.0535 188.838 76.2672 188.993 76.4247C189.149 76.5823 189.36 76.6708 189.58 76.6708H197.02C197.17 76.6708 197.318 76.7002 197.456 76.7575C197.595 76.8148 197.72 76.8988 197.826 77.0046C197.932 77.1105 198.016 77.2362 198.073 77.3745C198.131 77.5128 198.16 77.661 198.16 77.8108V78.1308C198.16 78.4225 198.044 78.7023 197.838 78.9086C197.632 79.1149 197.352 79.2308 197.06 79.2308H186.26C186.135 79.2308 186.016 79.1812 185.928 79.0931C185.84 79.005 185.79 78.8854 185.79 78.7607C185.79 76.0341 185.787 73.5407 185.78 71.2807C185.767 69.0274 185.743 66.5374 185.71 63.8108C185.709 63.7482 185.72 63.686 185.743 63.6278C185.766 63.5696 185.8 63.5166 185.844 63.4719C185.888 63.4272 185.94 63.3917 185.998 63.3675C186.056 63.3432 186.117 63.3307 186.18 63.3307L196.98 63.2207C197.125 63.2194 197.268 63.2466 197.402 63.3006C197.536 63.3547 197.658 63.4346 197.761 63.5359C197.864 63.6371 197.946 63.7576 198.003 63.8905C198.059 64.0235 198.089 64.1663 198.09 64.3108V64.6308C198.093 64.9314 197.977 65.2209 197.767 65.4363C197.557 65.6517 197.271 65.7755 196.97 65.7807L189.53 65.8607C189.42 65.8607 189.311 65.8827 189.21 65.9256C189.109 65.9684 189.017 66.0312 188.94 66.1102C188.862 66.1893 188.801 66.2831 188.76 66.3862C188.719 66.4893 188.699 66.5996 188.7 66.7107L188.73 69.1507C188.731 69.272 188.757 69.3917 188.804 69.5029C188.852 69.6142 188.921 69.7147 189.008 69.7985C189.095 69.8824 189.197 69.9479 189.309 69.9912C189.421 70.0345 189.54 70.0547 189.66 70.0508C192.947 69.9641 195 69.9274 195.82 69.9408C196.213 69.9408 196.523 70.0508 196.75 70.2708C196.963 70.4774 197.07 70.7974 197.07 71.2308Z" fill="#C0A075"/>
<path d="M253.268 63.145L251.248 63.1556C250.972 63.157 250.749 63.3821 250.751 63.6582L250.83 78.758C250.831 79.0341 251.056 79.2568 251.332 79.2554L253.352 79.2448C253.628 79.2433 253.851 79.0183 253.85 78.7422L253.771 63.6424C253.769 63.3662 253.544 63.1436 253.268 63.145Z" fill="#C0A075"/>
<path d="M241 79.5105H239.75C239.376 79.5107 239.008 79.4218 238.676 79.2514C238.343 79.0809 238.057 78.8338 237.84 78.5305L234.76 74.2205C234.68 74.1091 234.574 74.0183 234.453 73.9557C234.331 73.8932 234.197 73.8605 234.06 73.8605H231.58C231.405 73.8605 231.237 73.93 231.114 74.0538C230.99 74.1776 230.92 74.3454 230.92 74.5205V78.3505C230.92 78.4726 230.896 78.5935 230.85 78.7064C230.803 78.8192 230.734 78.9217 230.648 79.0081C230.562 79.0944 230.459 79.163 230.346 79.2097C230.233 79.2564 230.113 79.2805 229.99 79.2805H228.82C228.576 79.2805 228.342 79.1836 228.17 79.011C227.997 78.8385 227.9 78.6045 227.9 78.3605V64.0605C227.9 63.8835 227.969 63.7135 228.092 63.5866C228.216 63.4596 228.384 63.3857 228.56 63.3805C231.727 63.2938 234.62 63.3738 237.24 63.6205C242.53 64.1205 242.68 70.9905 238.28 73.0705C238.221 73.0987 238.168 73.1394 238.125 73.1897C238.083 73.24 238.052 73.2988 238.035 73.3618C238.018 73.4248 238.015 73.4904 238.026 73.5542C238.037 73.6179 238.063 73.6781 238.1 73.7305L241.52 78.5105C241.588 78.6042 241.628 78.7147 241.636 78.8299C241.644 78.945 241.62 79.0605 241.567 79.1637C241.513 79.2669 241.432 79.3538 241.332 79.4149C241.232 79.4761 241.117 79.5091 241 79.5105ZM230.94 66.4405L230.96 70.6005C230.962 70.6609 230.975 70.7205 230.999 70.7758C231.024 70.8311 231.059 70.8811 231.102 70.9229C231.146 70.9646 231.197 70.9974 231.254 71.0193C231.31 71.0412 231.37 71.0518 231.43 71.0505L234.78 71.0305C235.237 71.027 235.688 70.9616 236.108 70.8381C236.528 70.7145 236.91 70.5353 237.23 70.3105C237.55 70.0857 237.804 69.8199 237.975 69.5282C238.147 69.2365 238.234 68.9246 238.23 68.6105V68.3105C238.224 67.6772 237.853 67.073 237.198 66.6305C236.544 66.188 235.66 65.9434 234.74 65.9505L231.39 65.9705C231.33 65.9718 231.27 65.985 231.215 66.0093C231.16 66.0336 231.11 66.0686 231.068 66.1122C231.026 66.1559 230.993 66.2073 230.972 66.2637C230.95 66.32 230.939 66.3801 230.94 66.4405Z" fill="#C0A075"/>
</svg>
